<svg width="15" height="15" viewBox="0 0 15 15" fill="none" xmlns="http://www.w3.org/2000/svg">
<path d="M8.46108 7.50005L12.6036 3.35754C12.8693 3.0919 12.8694 2.66177 12.6036 2.39607C12.3379 2.13034 11.9078 2.13028 11.6421 2.39605L7.49959 6.53856L3.35708 2.39607C3.09144 2.13036 2.66129 2.13028 2.39558 2.39602C2.12986 2.66173 2.12984 3.09179 2.39558 3.35752L6.53805 7.50005L2.39556 11.6425C2.13046 11.9076 2.13046 12.339 2.39556 12.604C2.66125 12.8698 3.09135 12.8698 3.35706 12.604L7.49954 8.46151L11.642 12.604C11.9077 12.8697 12.3378 12.8697 12.6035 12.604C12.8692 12.3383 12.8693 11.9082 12.6035 11.6425L8.46108 7.50005Z" fill="#344563"/>
</svg>
