<svg width="15" height="15" viewBox="0 0 15 15" fill="none" xmlns="http://www.w3.org/2000/svg">
<path d="M6.82012 6.82012L0.961746 6.82013C0.586027 6.82009 0.281808 7.12416 0.281866 7.49999C0.281837 7.87575 0.585909 8.17991 0.96173 8.17988L6.82012 8.17988L6.82013 14.0383C6.82009 14.414 7.12419 14.7182 7.49998 14.7182C7.87576 14.7182 8.17988 14.4141 8.17986 14.0383L8.17991 8.1799L14.0383 8.1799C14.4132 8.1799 14.7182 7.8749 14.7182 7.50002C14.7182 7.12426 14.4141 6.8201 14.0383 6.82014L8.17988 6.82017L8.17989 0.961812C8.17994 0.586078 7.8758 0.281903 7.50004 0.281933C7.12427 0.281904 6.82011 0.585977 6.82011 0.961827L6.82012 6.82012Z" fill="#344563"/>
</svg>
